<svg version="1.1" id="Layer_1" xmlns="http://www.w3.org/2000/svg" xmlns:xlink="http://www.w3.org/1999/xlink" x="0px" y="0px"
	 width="100%" viewBox="0 0 225 225" enable-background="new 0 0 225 225" xml:space="preserve">
<path fill="#FEFFFE" opacity="1.000000" stroke="none" 
	d="
M129.000000,226.000000 
	C86.000000,226.000000 43.500004,226.000000 1.000006,226.000000 
	C1.000004,151.000000 1.000004,76.000015 1.000002,1.000016 
	C75.999992,1.000010 150.999985,1.000010 225.999969,1.000005 
	C225.999985,75.999985 225.999985,150.999969 226.000000,225.999969 
	C193.833328,226.000000 161.666672,226.000000 129.000000,226.000000 
M107.538826,105.941612 
	C108.052437,105.724701 108.566048,105.507797 109.970612,105.334435 
	C112.650627,105.232117 115.330650,105.129799 118.628517,105.266853 
	C119.064339,105.245888 119.500153,105.224922 120.557053,105.517220 
	C121.697044,105.647636 122.837029,105.778046 124.625694,106.145393 
	C125.078651,106.130638 125.531601,106.115883 126.741745,105.989136 
	C126.828514,105.326378 126.915291,104.663628 127.118172,103.549835 
	C127.118172,103.549835 127.210037,103.093246 127.985443,103.106270 
	C129.372650,102.419724 130.759872,101.733177 132.678528,100.588142 
	C133.495453,98.222916 134.312393,95.857697 135.129318,93.492477 
	C134.792969,93.315605 134.456604,93.138733 134.120255,92.961861 
	C132.321793,95.070358 130.523346,97.178864 128.159988,99.554749 
	C127.783096,99.670746 127.406204,99.786736 126.966217,99.094048 
	C126.423492,96.108696 125.880768,93.123352 125.177071,89.252525 
	C122.726624,92.837753 120.834229,95.606491 118.464073,97.777962 
	C117.284843,94.690895 116.105606,91.603828 114.635239,87.754608 
	C113.651398,90.382423 113.199409,92.149414 112.349327,93.697861 
	C111.549377,95.154961 110.329544,96.381554 109.186073,97.810219 
	C109.186073,97.810219 109.332443,97.788979 109.356018,97.336784 
	C109.356018,97.336784 109.062202,96.992249 108.905273,96.312866 
	C107.483398,94.027184 106.061523,91.741508 104.245804,88.822708 
	C103.473854,92.872314 102.871368,96.032898 102.166367,99.731285 
	C99.624924,97.499382 97.590698,95.712906 95.556465,93.926430 
	C95.253983,94.184280 94.951492,94.442123 94.649010,94.699974 
	C95.442924,96.800598 96.236839,98.901230 97.068069,101.658920 
	C97.913010,103.584595 98.757950,105.510269 99.754875,107.782318 
	C101.109055,107.235817 102.561333,106.649727 104.756828,106.121155 
	C105.494926,106.026527 106.233025,105.931892 107.538826,105.941612 
M208.200180,125.312454 
	C208.477936,125.439438 208.755829,125.566154 209.497055,126.425156 
	C209.726654,129.853104 209.956253,133.281067 210.205902,137.008224 
	C212.274307,136.859451 213.956528,136.738449 215.076996,136.657852 
	C214.483353,133.270279 213.856903,130.533096 213.548920,127.760529 
	C212.940567,122.283958 210.049637,120.756943 204.206192,123.358261 
	C202.526672,123.358261 200.847153,123.358261 200.210617,123.358261 
	C199.808838,128.253281 199.473022,132.344757 199.093124,136.973373 
	C201.184479,136.844559 203.580948,136.696945 206.813675,136.497833 
	C203.602142,132.109375 202.786987,128.564163 206.826202,125.243790 
	C207.156723,125.182259 207.487228,125.120728 208.200180,125.312454 
M106.001389,123.014923 
	C106.001389,123.014923 106.029297,123.046463 105.251099,123.277458 
	C103.180008,122.868782 101.108910,122.460098 99.146965,122.072952 
	C99.146965,127.333168 99.146965,131.756393 99.146965,136.519180 
	C100.863747,136.519180 103.276390,136.519180 106.317719,136.519180 
	C105.617073,135.217682 105.261429,134.558685 104.907295,133.898911 
	C102.964691,130.279663 104.015587,125.398552 107.274269,124.956490 
	C107.469185,124.989250 107.664101,125.022018 108.194008,125.400269 
	C108.448700,125.600075 108.728088,125.755493 109.390266,126.730247 
	C109.580208,129.986404 109.770142,133.242554 109.966766,136.613342 
	C111.864624,136.613342 113.567085,136.613342 114.760391,136.613342 
	C114.239151,133.088242 113.820190,129.875244 113.277054,126.683388 
	C112.678375,123.165184 110.628616,121.534126 106.486710,122.188393 
	C106.338631,122.464035 106.190552,122.739677 106.001389,123.014923 
M80.070190,135.376053 
	C79.710075,134.917526 79.349968,134.459015 78.453758,133.194763 
	C78.284340,127.190079 78.114929,121.185402 77.834976,114.401413 
	C76.549561,114.335114 75.264145,114.268806 73.422829,114.124969 
	C73.258629,114.419228 73.094437,114.713493 72.758873,115.838120 
	C73.392761,118.033066 74.026649,120.228012 74.879013,123.179451 
	C69.982849,121.593361 65.584923,120.883362 64.056000,125.240143 
	C63.031052,128.160767 63.471245,132.631546 65.130798,135.194839 
	C67.184402,138.366806 71.165970,137.964584 74.546768,135.891693 
	C74.705162,136.030624 74.863548,136.169540 75.697578,136.809265 
	C76.809746,136.781006 77.921921,136.752762 79.510513,136.831268 
	C79.870377,136.664581 79.991066,136.391998 80.070190,135.376053 
M30.059082,127.939270 
	C28.909864,127.939270 27.760649,127.939270 26.543770,127.939270 
	C26.483284,130.051498 31.126978,133.172775 25.573889,133.637482 
	C23.738091,133.791092 20.350817,132.055588 20.062735,130.682449 
	C19.407543,127.559547 19.666086,123.923393 20.737751,120.918243 
	C21.165520,119.718704 24.797499,118.994522 26.821495,119.247765 
	C28.372950,119.441887 29.689960,121.509743 31.184299,122.807693 
	C33.056110,117.822250 31.662970,115.556168 27.006069,115.744209 
	C26.071283,115.781960 25.153902,116.568283 24.232136,116.560806 
	C16.707672,116.499733 12.688355,121.339127 14.238339,128.714737 
	C15.378356,134.139542 18.892576,136.949524 25.187042,137.147964 
	C29.527306,137.284790 33.216331,136.446213 32.625385,130.669434 
	C32.559269,130.023117 33.537327,129.270004 34.471451,127.939087 
	C32.757710,127.939087 31.799683,127.939087 30.059082,127.939270 
M194.076965,130.754669 
	C195.027924,128.217728 195.978897,125.680801 197.112976,122.655350 
	C194.957306,122.655350 193.141663,122.655350 191.522583,122.655350 
	C191.219284,125.305031 190.932953,127.806435 190.646637,130.307831 
	C189.032486,128.494034 188.793335,126.643349 188.041611,125.031754 
	C187.587265,124.057716 186.423874,123.058876 185.411972,122.838493 
	C184.837372,122.713341 183.587875,124.001572 183.235733,124.888802 
	C182.486145,126.777397 182.123856,128.819717 181.602829,130.799042 
	C181.251266,130.766281 180.899689,130.733521 180.548126,130.700760 
	C180.548126,128.088440 180.548126,125.476112 180.548126,122.778191 
	C178.240005,122.778191 176.163559,122.778191 174.222290,122.778191 
	C175.531113,126.792358 176.525543,130.393372 177.921371,133.831436 
	C178.425812,135.073914 179.749786,136.365891 180.981735,136.764999 
	C181.573105,136.956604 183.054703,135.263702 183.708344,134.170288 
	C184.441605,132.943680 184.694824,131.430115 185.476303,129.081528 
	C186.226166,131.437698 186.450424,132.962616 187.179016,134.187531 
	C187.831467,135.284409 189.012726,136.729141 190.010147,136.768570 
	C190.970978,136.806549 192.156418,135.364685 192.937546,134.339996 
	C193.503479,133.597610 193.570282,132.474716 194.076965,130.754669 
M130.911789,115.949478 
	C125.876297,117.564308 124.021469,121.404388 123.977150,126.282745 
	C123.938286,130.560394 125.559502,134.235428 129.601990,136.064072 
	C133.919617,138.017197 138.232239,137.814163 141.973419,133.847122 
	C140.359772,133.198212 138.690201,133.647827 137.250793,133.254715 
	C134.628464,132.538513 131.097000,132.026306 129.837326,130.155029 
	C127.788643,127.111671 127.855415,122.918793 131.136230,120.208244 
	C133.134094,118.557640 135.826630,117.449020 137.914246,120.703362 
	C138.343277,121.372154 139.344162,121.674126 140.081451,122.145180 
	C140.502182,121.197182 141.536438,119.851326 141.228226,119.376022 
	C140.315704,117.968803 139.059830,116.334023 137.590164,115.854073 
	C135.817047,115.275040 133.686737,115.789726 130.911789,115.949478 
M92.907074,131.321106 
	C96.380943,131.120712 96.442627,129.001587 95.574898,126.460175 
	C94.271812,122.643661 90.104836,120.911446 86.259552,122.528793 
	C82.382568,124.159485 80.684227,128.940079 82.539833,132.999283 
	C84.247139,136.734070 87.519272,137.617920 91.182251,135.640854 
	C89.812401,134.739838 88.229637,133.698776 86.646873,132.657715 
	C86.836311,132.213226 87.025749,131.768723 87.215195,131.324234 
	C88.835251,131.324234 90.455307,131.324234 92.907074,131.321106 
M170.088989,135.831726 
	C173.534042,131.874741 174.036163,127.884132 171.491348,124.686661 
	C169.179367,121.781715 163.948380,120.925774 160.582718,123.119759 
	C156.934540,125.497902 156.556000,129.022964 157.942551,132.783249 
	C159.464157,136.909790 163.451111,138.024567 170.088989,135.831726 
M36.369965,132.708099 
	C37.320179,133.818192 38.172127,135.755249 39.239182,135.882034 
	C42.339291,136.250412 46.099361,136.884811 48.492653,135.500061 
	C50.335308,134.433899 51.420109,130.363541 51.122784,127.830864 
	C50.886189,125.815460 48.365627,123.075363 46.311893,122.447952 
	C39.523830,120.374252 35.788715,124.113808 36.369965,132.708099 
M153.454880,121.869438 
	C150.361679,122.192459 147.268478,122.515480 144.905823,122.762215 
	C144.905823,127.563103 144.905823,131.929596 144.905823,136.466614 
	C146.779556,136.466614 149.379990,136.466614 153.039169,136.466614 
	C149.355820,132.857437 148.343552,129.666595 151.277817,126.212952 
	C152.760330,126.596977 154.076981,126.938042 156.804337,127.644539 
	C155.662430,125.036797 154.972000,123.460091 153.454880,121.869438 
M58.982059,114.994720 
	C57.280251,114.634514 55.578445,114.274315 53.935123,113.926498 
	C54.418236,117.712479 54.944988,120.678589 55.136139,123.666161 
	C55.326176,126.636215 55.149529,129.628235 55.186615,132.609955 
	C55.237751,136.721466 57.331161,137.590881 59.779957,136.764664 
	C59.546272,129.386444 59.332638,122.641273 58.982059,114.994720 
z"/>
<path fill="#25B453" opacity="1.000000" stroke="none" 
	d="
M30.450369,127.939178 
	C31.799683,127.939087 32.757710,127.939087 34.471451,127.939087 
	C33.537327,129.270004 32.559269,130.023117 32.625385,130.669434 
	C33.216331,136.446213 29.527306,137.284790 25.187042,137.147964 
	C18.892576,136.949524 15.378356,134.139542 14.238339,128.714737 
	C12.688355,121.339127 16.707672,116.499733 24.232136,116.560806 
	C25.153902,116.568283 26.071283,115.781960 27.006069,115.744209 
	C31.662970,115.556168 33.056110,117.822250 31.184299,122.807693 
	C29.689960,121.509743 28.372950,119.441887 26.821495,119.247765 
	C24.797499,118.994522 21.165520,119.718704 20.737751,120.918243 
	C19.666086,123.923393 19.407543,127.559547 20.062735,130.682449 
	C20.350817,132.055588 23.738091,133.791092 25.573889,133.637482 
	C31.126978,133.172775 26.483284,130.051498 26.543770,127.939270 
	C27.760649,127.939270 28.909864,127.939270 30.450369,127.939178 
z"/>
<path fill="#2AB557" opacity="1.000000" stroke="none" 
	d="
M193.968323,131.138092 
	C193.570282,132.474716 193.503479,133.597610 192.937546,134.339996 
	C192.156418,135.364685 190.970978,136.806549 190.010147,136.768570 
	C189.012726,136.729141 187.831467,135.284409 187.179016,134.187531 
	C186.450424,132.962616 186.226166,131.437698 185.476303,129.081528 
	C184.694824,131.430115 184.441605,132.943680 183.708344,134.170288 
	C183.054703,135.263702 181.573105,136.956604 180.981735,136.764999 
	C179.749786,136.365891 178.425812,135.073914 177.921371,133.831436 
	C176.525543,130.393372 175.531113,126.792358 174.222290,122.778191 
	C176.163559,122.778191 178.240005,122.778191 180.548126,122.778191 
	C180.548126,125.476112 180.548126,128.088440 180.548126,130.700760 
	C180.899689,130.733521 181.251266,130.766281 181.602829,130.799042 
	C182.123856,128.819717 182.486145,126.777397 183.235733,124.888802 
	C183.587875,124.001572 184.837372,122.713341 185.411972,122.838493 
	C186.423874,123.058876 187.587265,124.057716 188.041611,125.031754 
	C188.793335,126.643349 189.032486,128.494034 190.646637,130.307831 
	C190.932953,127.806435 191.219284,125.305031 191.522583,122.655350 
	C193.141663,122.655350 194.957306,122.655350 197.112976,122.655350 
	C195.978897,125.680801 195.027924,128.217728 193.968323,131.138092 
z"/>
<path fill="#25B453" opacity="1.000000" stroke="none" 
	d="
M131.311417,115.890244 
	C133.686737,115.789726 135.817047,115.275040 137.590164,115.854073 
	C139.059830,116.334023 140.315704,117.968803 141.228226,119.376022 
	C141.536438,119.851326 140.502182,121.197182 140.081451,122.145180 
	C139.344162,121.674126 138.343277,121.372154 137.914246,120.703362 
	C135.826630,117.449020 133.134094,118.557640 131.136230,120.208244 
	C127.855415,122.918793 127.788643,127.111671 129.837326,130.155029 
	C131.097000,132.026306 134.628464,132.538513 137.250793,133.254715 
	C138.690201,133.647827 140.359772,133.198212 141.973419,133.847122 
	C138.232239,137.814163 133.919617,138.017197 129.601990,136.064072 
	C125.559502,134.235428 123.938286,130.560394 123.977150,126.282745 
	C124.021469,121.404388 125.876297,117.564308 131.311417,115.890244 
z"/>
<path fill="#23B351" opacity="1.000000" stroke="none" 
	d="
M79.034088,136.724518 
	C77.921921,136.752762 76.809746,136.781006 75.344719,136.432404 
	C74.758995,135.807938 74.526131,135.560303 74.293274,135.312683 
	C71.165970,137.964584 67.184402,138.366806 65.130798,135.194839 
	C63.471245,132.631546 63.031052,128.160767 64.056000,125.240143 
	C65.584923,120.883362 69.982849,121.593361 74.879013,123.179451 
	C74.026649,120.228012 73.392761,118.033066 73.058403,115.344856 
	C73.634888,114.702209 73.841820,114.485847 73.978729,114.202499 
	C75.264145,114.268806 76.549561,114.335114 77.902344,115.245079 
	C78.309761,122.059326 78.649811,128.029907 78.989853,134.000488 
	C79.349968,134.459015 79.710075,134.917526 79.798264,135.770096 
	C79.304436,136.300125 79.140350,136.486908 79.034088,136.724518 
M69.964378,125.271370 
	C65.749695,128.339127 65.823257,130.693008 71.120155,135.660690 
	C72.266441,133.152008 73.755447,131.051147 74.020439,128.805832 
	C74.145607,127.745163 71.925415,126.407692 69.964378,125.271370 
z"/>
<path fill="#23B351" opacity="1.000000" stroke="none" 
	d="
M92.491219,131.322662 
	C90.455307,131.324234 88.835251,131.324234 87.215195,131.324234 
	C87.025749,131.768723 86.836311,132.213226 86.646873,132.657715 
	C88.229637,133.698776 89.812401,134.739838 91.182251,135.640854 
	C87.519272,137.617920 84.247139,136.734070 82.539833,132.999283 
	C80.684227,128.940079 82.382568,124.159485 86.259552,122.528793 
	C90.104836,120.911446 94.271812,122.643661 95.574898,126.460175 
	C96.442627,129.001587 96.380943,131.120712 92.491219,131.322662 
z"/>
<path fill="#1DB24E" opacity="1.000000" stroke="none" 
	d="
M169.727539,136.016357 
	C163.451111,138.024567 159.464157,136.909790 157.942551,132.783249 
	C156.556000,129.022964 156.934540,125.497902 160.582718,123.119759 
	C163.948380,120.925774 169.179367,121.781715 171.491348,124.686661 
	C174.036163,127.884132 173.534042,131.874741 169.727539,136.016357 
M168.033936,132.441574 
	C167.754745,130.252563 167.682800,127.994637 166.999634,125.939934 
	C166.880859,125.582695 163.164841,125.625229 162.871246,126.276695 
	C162.094376,128.000519 161.597519,130.491089 162.338852,132.023666 
	C162.799942,132.976883 165.716782,132.742249 168.033936,132.441574 
z"/>
<path fill="#23B351" opacity="1.000000" stroke="none" 
	d="
M36.231331,132.322937 
	C35.788715,124.113808 39.523830,120.374252 46.311893,122.447952 
	C48.365627,123.075363 50.886189,125.815460 51.122784,127.830864 
	C51.420109,130.363541 50.335308,134.433899 48.492653,135.500061 
	C46.099361,136.884811 42.339291,136.250412 39.239182,135.882034 
	C38.172127,135.755249 37.320179,133.818192 36.231331,132.322937 
M46.530327,132.595993 
	C46.818478,131.500793 47.613594,130.209595 47.282707,129.353714 
	C46.704304,127.857597 45.679268,126.042305 44.367474,125.493469 
	C43.484688,125.124130 40.623005,126.771187 40.659462,127.399330 
	C40.799202,129.806900 41.752399,132.167252 42.402023,134.545227 
	C43.584621,134.078094 44.767220,133.610962 46.530327,132.595993 
z"/>
<path fill="#29B556" opacity="1.000000" stroke="none" 
	d="
M153.868225,121.876404 
	C154.972000,123.460091 155.662430,125.036797 156.804337,127.644539 
	C154.076981,126.938042 152.760330,126.596977 151.277817,126.212952 
	C148.343552,129.666595 149.355820,132.857437 153.039169,136.466614 
	C149.379990,136.466614 146.779556,136.466614 144.905823,136.466614 
	C144.905823,131.929596 144.905823,127.563103 144.905823,122.762215 
	C147.268478,122.515480 150.361679,122.192459 153.868225,121.876404 
z"/>
<path fill="#29B556" opacity="1.000000" stroke="none" 
	d="
M59.050529,115.445412 
	C59.332638,122.641273 59.546272,129.386444 59.779957,136.764664 
	C57.331161,137.590881 55.237751,136.721466 55.186615,132.609955 
	C55.149529,129.628235 55.326176,126.636215 55.136139,123.666161 
	C54.944988,120.678589 54.418236,117.712479 53.935123,113.926498 
	C55.578445,114.274315 57.280251,114.634514 59.050529,115.445412 
z"/>
<path fill="#37B75E" opacity="1.000000" stroke="none" 
	d="
M106.937332,124.468552 
	C104.015587,125.398552 102.964691,130.279663 104.907295,133.898911 
	C105.261429,134.558685 105.617073,135.217682 106.317719,136.519180 
	C103.276390,136.519180 100.863747,136.519180 99.146965,136.519180 
	C99.146965,131.756393 99.146965,127.333168 99.146965,122.072952 
	C101.108910,122.460098 103.180008,122.868782 105.731018,123.354477 
	C106.453072,123.777176 106.695206,124.122864 106.937332,124.468552 
z"/>
<path fill="#F7A123" opacity="1.000000" stroke="none" 
	d="
M97.030754,101.001854 
	C96.236839,98.901230 95.442924,96.800598 94.649010,94.699974 
	C94.951492,94.442123 95.253983,94.184280 95.556465,93.926430 
	C97.590698,95.712906 99.624924,97.499382 102.166367,99.731285 
	C102.871368,96.032898 103.473854,92.872314 104.245804,88.822708 
	C106.061523,91.741508 107.483398,94.027184 108.809341,96.755562 
	C108.919746,97.395164 109.126091,97.592072 109.332443,97.788979 
	C109.332443,97.788979 109.186073,97.810219 109.139771,98.105553 
	C109.060425,98.874168 109.027397,99.347450 108.690483,99.907280 
	C107.968048,100.041168 107.549500,100.088501 106.836243,100.071304 
	C106.019821,100.238670 105.498100,100.470566 104.612091,100.774780 
	C102.858833,101.277084 101.469849,101.707077 99.880447,101.854965 
	C98.796936,101.382523 97.913849,101.192184 97.030754,101.001854 
z"/>
<path fill="#2AB557" opacity="1.000000" stroke="none" 
	d="
M206.322739,125.187584 
	C202.786987,128.564163 203.602142,132.109375 206.813675,136.497833 
	C203.580948,136.696945 201.184479,136.844559 199.093124,136.973373 
	C199.473022,132.344757 199.808838,128.253281 200.210617,123.358261 
	C200.847153,123.358261 202.526672,123.358261 204.666138,123.672676 
	C205.524963,124.387253 205.923843,124.787415 206.322739,125.187584 
z"/>
<path fill="#23B351" opacity="1.000000" stroke="none" 
	d="
M107.105804,124.712524 
	C106.695206,124.122864 106.453072,123.777176 106.120117,123.238983 
	C106.029297,123.046463 106.001389,123.014923 106.225632,122.932167 
	C106.704002,122.682632 106.886223,122.457603 106.996536,122.174339 
	C110.628616,121.534126 112.678375,123.165184 113.277054,126.683388 
	C113.820190,129.875244 114.239151,133.088242 114.760391,136.613342 
	C113.567085,136.613342 111.864624,136.613342 109.966766,136.613342 
	C109.770142,133.242554 109.580208,129.986404 109.083374,126.078690 
	C108.470665,125.303024 108.164848,125.178909 107.859024,125.054794 
	C107.664101,125.022018 107.469185,124.989250 107.105804,124.712524 
z"/>
<path fill="#23B351" opacity="1.000000" stroke="none" 
	d="
M206.574463,125.215683 
	C205.923843,124.787415 205.524963,124.387253 205.072098,123.697357 
	C210.049637,120.756943 212.940567,122.283958 213.548920,127.760529 
	C213.856903,130.533096 214.483353,133.270279 215.076996,136.657852 
	C213.956528,136.738449 212.274307,136.859451 210.205902,137.008224 
	C209.956253,133.281067 209.726654,129.853104 209.104462,125.884079 
	C208.447021,125.143890 208.148987,125.049294 207.817749,125.059204 
	C207.487228,125.120728 207.156723,125.182259 206.574463,125.215683 
z"/>
<path fill="#F8A329" opacity="1.000000" stroke="none" 
	d="
M108.994370,99.820732 
	C109.027397,99.347450 109.060425,98.874168 109.193954,98.055229 
	C110.329544,96.381554 111.549377,95.154961 112.349327,93.697861 
	C113.199409,92.149414 113.651398,90.382423 114.635239,87.754608 
	C116.105606,91.603828 117.284843,94.690895 118.730743,98.325462 
	C119.002312,99.206978 119.007202,99.540993 118.677078,99.931480 
	C117.894531,100.043396 117.447006,100.098846 116.577477,100.061081 
	C114.436760,100.038338 112.718040,100.108795 110.669220,100.097641 
	C109.890877,99.950928 109.442619,99.885826 108.994370,99.820732 
z"/>
<path fill="#F79E17" opacity="1.000000" stroke="none" 
	d="
M119.012100,99.875008 
	C119.007202,99.540993 119.002312,99.206978 118.969627,98.624092 
	C120.834229,95.606491 122.726624,92.837753 125.177071,89.252525 
	C125.880768,93.123352 126.423492,96.108696 127.002647,99.723907 
	C127.039078,100.353767 127.020355,100.804504 126.692764,100.892609 
	C125.913460,100.961266 125.461761,100.941833 124.821213,100.672752 
	C124.031235,100.348709 123.430084,100.274315 122.450027,100.144577 
	C121.051445,100.017830 120.031769,99.946419 119.012100,99.875008 
z"/>
<path fill="#F79E17" opacity="1.000000" stroke="none" 
	d="
M119.935974,105.203957 
	C119.500153,105.224922 119.064339,105.245888 118.107605,104.873306 
	C115.779877,104.260262 113.882568,104.301414 112.202034,103.718086 
	C111.276161,103.396698 110.714539,102.025917 110.239288,101.033401 
	C110.659401,100.882240 110.828926,100.825912 111.423950,100.827972 
	C113.566010,100.837692 115.282555,100.789032 117.371101,100.825508 
	C118.500465,100.991051 119.257835,101.071449 120.153595,101.433563 
	C120.173317,102.878166 120.054649,104.041061 119.935974,105.203957 
z"/>
<path fill="#F79E17" opacity="1.000000" stroke="none" 
	d="
M97.049408,101.330383 
	C97.913849,101.192184 98.796936,101.382523 99.961273,102.071320 
	C100.680191,102.680313 101.117867,102.790833 101.893005,102.906174 
	C102.806702,102.647346 103.382935,102.383698 104.179932,102.019928 
	C104.400696,101.919807 104.871742,101.805031 105.155731,101.890228 
	C105.632988,102.016930 105.826248,102.058426 106.027481,102.375481 
	C106.311378,103.099236 106.587296,103.547432 106.908035,104.249603 
	C106.962128,104.675285 106.971397,104.846977 106.641266,105.015175 
	C105.539108,105.362328 104.776360,105.712975 104.013618,106.063629 
	C102.561333,106.649727 101.109055,107.235817 99.754875,107.782318 
	C98.757950,105.510269 97.913010,103.584595 97.049408,101.330383 
M101.694305,105.317764 
	C101.483376,104.971001 101.272446,104.624237 101.061516,104.277473 
	C100.791489,104.537727 100.521454,104.797981 100.251419,105.058228 
	C100.588669,105.279640 100.925911,105.501045 101.694305,105.317764 
z"/>
<path fill="#F79E17" opacity="1.000000" stroke="none" 
	d="
M128.724884,99.287361 
	C130.523346,97.178864 132.321793,95.070358 134.120255,92.961861 
	C134.456604,93.138733 134.792969,93.315605 135.129318,93.492477 
	C134.312393,95.857697 133.495453,98.222916 131.995956,100.793518 
	C130.450546,100.428375 129.587723,99.857872 128.724884,99.287361 
z"/>
<path fill="#F79801" opacity="1.000000" stroke="none" 
	d="
M128.442444,99.421051 
	C129.587723,99.857872 130.450546,100.428375 131.730225,101.022758 
	C130.759872,101.733177 129.372650,102.419724 127.227951,103.074280 
	C124.491150,102.998833 122.308914,102.778839 123.977020,105.908463 
	C122.837029,105.778046 121.697044,105.647636 120.246521,105.360588 
	C120.054649,104.041061 120.173317,102.878166 120.471397,101.378799 
	C121.080490,101.051674 121.510170,101.061028 122.166443,101.326538 
	C123.281845,101.691711 124.170654,101.800713 125.364395,101.947334 
	C126.119659,101.591469 126.570007,101.197983 127.020355,100.804504 
	C127.020355,100.804504 127.039078,100.353767 127.034195,100.128250 
	C127.406204,99.786736 127.783096,99.670746 128.442444,99.421051 
z"/>
<path fill="#25B453" opacity="1.000000" stroke="none" 
	d="
M78.721802,133.597626 
	C78.649811,128.029907 78.309761,122.059326 77.957611,115.634735 
	C78.114929,121.185402 78.284340,127.190079 78.721802,133.597626 
z"/>
<path fill="#F79801" opacity="1.000000" stroke="none" 
	d="
M106.863205,103.995621 
	C106.587296,103.547432 106.311378,103.099236 106.326492,102.411789 
	C107.079651,101.783363 107.541779,101.394203 108.336288,101.003136 
	C109.108681,101.043571 109.548683,101.085907 109.988693,101.128250 
	C110.714539,102.025917 111.276161,103.396698 112.202034,103.718086 
	C113.882568,104.301414 115.779877,104.260262 117.798683,104.753616 
	C115.330650,105.129799 112.650627,105.232117 109.372940,104.984184 
	C108.137917,104.421165 107.500565,104.208397 106.863205,103.995621 
z"/>
<path fill="#F79E17" opacity="1.000000" stroke="none" 
	d="
M124.301361,106.026932 
	C122.308914,102.778839 124.491150,102.998833 126.840248,103.067764 
	C127.210037,103.093246 127.118172,103.549835 126.809875,103.955872 
	C126.329231,104.941650 126.156891,105.521393 125.984558,106.101128 
	C125.531601,106.115883 125.078651,106.130638 124.301361,106.026932 
z"/>
<path fill="#F8A329" opacity="1.000000" stroke="none" 
	d="
M106.908035,104.249603 
	C107.500565,104.208397 108.137917,104.421165 108.927467,104.962410 
	C108.566048,105.507797 108.052437,105.724701 107.261368,105.684837 
	C106.983910,105.428062 106.980675,105.018677 106.980675,105.018677 
	C106.971397,104.846977 106.962128,104.675285 106.908035,104.249603 
z"/>
<path fill="#F79801" opacity="1.000000" stroke="none" 
	d="
M106.641266,105.015175 
	C106.980675,105.018677 106.983910,105.428062 106.977516,105.632660 
	C106.233025,105.931892 105.494926,106.026527 104.385223,106.092392 
	C104.776360,105.712975 105.539108,105.362328 106.641266,105.015175 
z"/>
<path fill="#F79801" opacity="1.000000" stroke="none" 
	d="
M126.363144,106.045135 
	C126.156891,105.521393 126.329231,104.941650 126.751816,104.181396 
	C126.915291,104.663628 126.828514,105.326378 126.363144,106.045135 
z"/>
<path fill="#25B453" opacity="1.000000" stroke="none" 
	d="
M74.420021,135.602188 
	C74.526131,135.560303 74.758995,135.807938 75.006897,136.182007 
	C74.863548,136.169540 74.705162,136.030624 74.420021,135.602188 
z"/>
<path fill="#37B75E" opacity="1.000000" stroke="none" 
	d="
M106.741623,122.181366 
	C106.886223,122.457603 106.704002,122.682632 106.246170,122.932365 
	C106.190552,122.739677 106.338631,122.464035 106.741623,122.181366 
z"/>
<path fill="#25B453" opacity="1.000000" stroke="none" 
	d="
M73.700775,114.163742 
	C73.841820,114.485847 73.634888,114.702209 73.144089,114.929672 
	C73.094437,114.713493 73.258629,114.419228 73.700775,114.163742 
z"/>
<path fill="#37B75E" opacity="1.000000" stroke="none" 
	d="
M108.026520,125.227531 
	C108.164848,125.178909 108.470665,125.303024 108.904327,125.646835 
	C108.728088,125.755493 108.448700,125.600075 108.026520,125.227531 
z"/>
<path fill="#F8A329" opacity="1.000000" stroke="none" 
	d="
M109.344231,97.562881 
	C109.126091,97.592072 108.919746,97.395164 108.887802,97.095253 
	C109.062202,96.992249 109.356018,97.336784 109.344231,97.562881 
z"/>
<path fill="#2AB557" opacity="1.000000" stroke="none" 
	d="
M208.008972,125.185829 
	C208.148987,125.049294 208.447021,125.143890 208.872864,125.517799 
	C208.755829,125.566154 208.477936,125.439438 208.008972,125.185829 
z"/>
<path fill="#25B453" opacity="1.000000" stroke="none" 
	d="
M79.272301,136.777893 
	C79.140350,136.486908 79.304436,136.300125 79.699463,136.088821 
	C79.991066,136.391998 79.870377,136.664581 79.272301,136.777893 
z"/>
<path fill="#F0F6F2" opacity="1.000000" stroke="none" 
	d="
M70.366135,125.233505 
	C71.925415,126.407692 74.145607,127.745163 74.020439,128.805832 
	C73.755447,131.051147 72.266441,133.152008 71.120155,135.660690 
	C65.823257,130.693008 65.749695,128.339127 70.366135,125.233505 
z"/>
<path fill="#E7F3EB" opacity="1.000000" stroke="none" 
	d="
M167.782684,132.741150 
	C165.716782,132.742249 162.799942,132.976883 162.338852,132.023666 
	C161.597519,130.491089 162.094376,128.000519 162.871246,126.276695 
	C163.164841,125.625229 166.880859,125.582695 166.999634,125.939934 
	C167.682800,127.994637 167.754745,130.252563 167.782684,132.741150 
z"/>
<path fill="#EBF4EE" opacity="1.000000" stroke="none" 
	d="
M46.240074,132.869904 
	C44.767220,133.610962 43.584621,134.078094 42.402023,134.545227 
	C41.752399,132.167252 40.799202,129.806900 40.659462,127.399330 
	C40.623005,126.771187 43.484688,125.124130 44.367474,125.493469 
	C45.679268,126.042305 46.704304,127.857597 47.282707,129.353714 
	C47.613594,130.209595 46.818478,131.500793 46.240074,132.869904 
z"/>
<path fill="#FAC991" opacity="1.000000" stroke="none" 
	d="
M108.003906,101.005043 
	C107.541779,101.394203 107.079651,101.783363 106.318512,102.136215 
	C105.826248,102.058426 105.632988,102.016930 105.176353,101.614075 
	C104.934113,101.069298 104.955246,100.885872 104.976372,100.702454 
	C105.498100,100.470566 106.019821,100.238670 106.918762,100.267334 
	C107.537659,100.678482 107.773628,100.837540 108.003906,101.005043 
z"/>
<path fill="#E7F3EB" opacity="1.000000" stroke="none" 
	d="
M104.612091,100.774773 
	C104.955246,100.885872 104.934113,101.069298 104.892365,101.528870 
	C104.871742,101.805031 104.400696,101.919807 103.846695,101.988342 
	C102.713646,102.338364 102.134590,102.619858 101.555534,102.901352 
	C101.117867,102.790833 100.680191,102.680313 100.161697,102.353432 
	C101.469849,101.707077 102.858833,101.277084 104.612091,100.774773 
z"/>
<path fill="#FEFFFE" opacity="1.000000" stroke="none" 
	d="
M108.336288,101.003136 
	C107.773628,100.837540 107.537659,100.678482 107.213470,100.331863 
	C107.549500,100.088501 107.968048,100.041168 108.690483,99.907280 
	C109.442619,99.885826 109.890877,99.950928 110.664993,100.245186 
	C110.990868,100.474342 110.998444,100.769577 110.998444,100.769577 
	C110.828926,100.825912 110.659401,100.882240 110.239288,101.033401 
	C109.548683,101.085907 109.108681,101.043571 108.336288,101.003136 
z"/>
<path fill="#EBF4EE" opacity="1.000000" stroke="none" 
	d="
M111.423950,100.827972 
	C110.998444,100.769577 110.990868,100.474342 110.995094,100.326797 
	C112.718040,100.108795 114.436760,100.038338 116.578453,100.207115 
	C117.001427,100.446350 116.999100,100.740364 116.999100,100.740364 
	C115.282555,100.789032 113.566010,100.837692 111.423950,100.827972 
z"/>
<path fill="#F0F6F2" opacity="1.000000" stroke="none" 
	d="
M117.371101,100.825508 
	C116.999100,100.740364 117.001427,100.446350 117.000450,100.300323 
	C117.447006,100.098846 117.894531,100.043396 118.677078,99.931480 
	C120.031769,99.946419 121.051445,100.017830 122.349243,100.330505 
	C122.398766,100.738762 122.169594,100.904961 121.939850,101.070374 
	C121.510170,101.061028 121.080490,101.051674 120.333008,101.097092 
	C119.257835,101.071449 118.500465,100.991051 117.371101,100.825508 
z"/>
<path fill="#FAC991" opacity="1.000000" stroke="none" 
	d="
M122.166443,101.326538 
	C122.169594,100.904961 122.398766,100.738762 122.728149,100.385849 
	C123.430084,100.274315 124.031235,100.348709 124.813057,100.920609 
	C124.993736,101.418114 125.059471,101.909714 125.059471,101.909714 
	C124.170654,101.800713 123.281845,101.691711 122.166443,101.326538 
z"/>
<path fill="#F0F6F2" opacity="1.000000" stroke="none" 
	d="
M125.364395,101.947334 
	C125.059471,101.909714 124.993736,101.418114 125.001892,101.170258 
	C125.461761,100.941833 125.913460,100.961266 126.692764,100.892609 
	C126.570007,101.197983 126.119659,101.591469 125.364395,101.947334 
z"/>
<path fill="#FAC991" opacity="1.000000" stroke="none" 
	d="
M101.478729,105.520111 
	C100.925911,105.501045 100.588669,105.279640 100.251419,105.058228 
	C100.521454,104.797981 100.791489,104.537727 101.061516,104.277473 
	C101.272446,104.624237 101.483376,104.971001 101.478729,105.520111 
z"/>
<path fill="#F79801" opacity="1.000000" stroke="none" 
	d="
M101.893005,102.906174 
	C102.134590,102.619858 102.713646,102.338364 103.625931,102.088455 
	C103.382935,102.383698 102.806702,102.647346 101.893005,102.906174 
z"/>
</svg>